<mxfile host="Electron" modified="2024-06-24T21:48:00.434Z" agent="Mozilla/5.0 (Windows NT 10.0; Win64; x64) AppleWebKit/537.36 (KHTML, like Gecko) draw.io/24.5.3 Chrome/124.0.6367.207 Electron/30.0.6 Safari/537.36" version="24.5.3" etag="54KPu8StyEJhGm45l2tP" type="device">
  <diagram name="Страница — 1" id="H5T7A1vWchafERDFFGWC">
    <mxGraphModel dx="1050" dy="629" grid="1" gridSize="10" guides="1" tooltips="1" connect="1" arrows="1" fold="1" page="1" pageScale="1" pageWidth="827" pageHeight="1169" math="0" shadow="0">
      <root>
        <mxCell id="0" />
        <mxCell id="1" parent="0" />
        <mxCell id="2" value="GateWay" style="rounded=1;whiteSpace=wrap;html=1;" parent="1" vertex="1">
          <mxGeometry x="354" y="120" width="120" height="60" as="geometry" />
        </mxCell>
        <mxCell id="3" value="Front" style="rounded=1;whiteSpace=wrap;html=1;fillColor=#18141D;" parent="1" vertex="1">
          <mxGeometry x="354" y="10" width="120" height="60" as="geometry" />
        </mxCell>
        <mxCell id="5" value="" style="endArrow=classic;startArrow=classic;html=1;exitX=0.5;exitY=0;exitDx=0;exitDy=0;" parent="1" source="2" target="3" edge="1">
          <mxGeometry width="50" height="50" relative="1" as="geometry">
            <mxPoint x="490" y="190" as="sourcePoint" />
            <mxPoint x="540" y="140" as="targetPoint" />
          </mxGeometry>
        </mxCell>
        <mxCell id="6" value="Брокер" style="ellipse;whiteSpace=wrap;html=1;fillColor=none;" parent="1" vertex="1">
          <mxGeometry x="50" y="600" width="740" height="80" as="geometry" />
        </mxCell>
        <mxCell id="7" value="Авторизация" style="rounded=0;whiteSpace=wrap;html=1;fillColor=none;sketch=1;curveFitting=1;jiggle=2;opacity=30;strokeWidth=4;strokeColor=#000000;" parent="1" vertex="1">
          <mxGeometry x="130" y="320" width="120" height="130" as="geometry" />
        </mxCell>
        <mxCell id="8" value="Пользователи, ролевая модель" style="rounded=1;whiteSpace=wrap;html=1;sketch=1;strokeColor=#000000;strokeWidth=4;fillColor=none;opacity=30;" parent="1" vertex="1">
          <mxGeometry x="130" y="330" width="120" height="30" as="geometry" />
        </mxCell>
        <mxCell id="10" value="База данных" style="rounded=1;whiteSpace=wrap;html=1;sketch=1;strokeColor=#000000;strokeWidth=4;fillColor=none;opacity=30;" parent="1" vertex="1">
          <mxGeometry x="130" y="420" width="120" height="30" as="geometry" />
        </mxCell>
        <mxCell id="12" value="" style="endArrow=classic;startArrow=classic;html=1;entryX=0.75;entryY=1;entryDx=0;entryDy=0;exitX=0;exitY=0;exitDx=0;exitDy=0;" parent="1" source="6" target="10" edge="1">
          <mxGeometry width="50" height="50" relative="1" as="geometry">
            <mxPoint x="150" y="560" as="sourcePoint" />
            <mxPoint x="200" y="510" as="targetPoint" />
          </mxGeometry>
        </mxCell>
        <mxCell id="13" value="" style="endArrow=classic;startArrow=classic;html=1;entryX=0;entryY=0.5;entryDx=0;entryDy=0;" parent="1" target="2" edge="1">
          <mxGeometry width="50" height="50" relative="1" as="geometry">
            <mxPoint x="190" y="300" as="sourcePoint" />
            <mxPoint x="430" y="310" as="targetPoint" />
          </mxGeometry>
        </mxCell>
        <mxCell id="14" value="Личный кабинет" style="rounded=1;whiteSpace=wrap;html=1;sketch=1;strokeColor=#000000;strokeWidth=4;fillColor=none;opacity=30;" parent="1" vertex="1">
          <mxGeometry x="330" y="310" width="230" height="170" as="geometry" />
        </mxCell>
        <mxCell id="15" value="Управление профилем пользователя и смежными системами" style="rounded=1;whiteSpace=wrap;html=1;sketch=1;strokeColor=#000000;strokeWidth=4;fillColor=none;opacity=30;" parent="1" vertex="1">
          <mxGeometry x="340" y="320" width="210" height="60" as="geometry" />
        </mxCell>
        <mxCell id="16" value="База данных" style="rounded=1;whiteSpace=wrap;html=1;sketch=1;strokeColor=#000000;strokeWidth=4;fillColor=none;opacity=30;" parent="1" vertex="1">
          <mxGeometry x="350" y="410" width="180" height="60" as="geometry" />
        </mxCell>
        <mxCell id="17" value="" style="endArrow=classic;startArrow=classic;html=1;exitX=0.5;exitY=0;exitDx=0;exitDy=0;entryX=0.5;entryY=1;entryDx=0;entryDy=0;" parent="1" source="14" target="2" edge="1">
          <mxGeometry width="50" height="50" relative="1" as="geometry">
            <mxPoint x="520" y="260" as="sourcePoint" />
            <mxPoint x="570" y="210" as="targetPoint" />
          </mxGeometry>
        </mxCell>
        <mxCell id="18" value="" style="endArrow=classic;startArrow=classic;html=1;entryX=0.5;entryY=1;entryDx=0;entryDy=0;exitX=0.642;exitY=-0.01;exitDx=0;exitDy=0;exitPerimeter=0;" parent="1" source="6" target="14" edge="1">
          <mxGeometry width="50" height="50" relative="1" as="geometry">
            <mxPoint x="370" y="600" as="sourcePoint" />
            <mxPoint x="570" y="540" as="targetPoint" />
          </mxGeometry>
        </mxCell>
        <mxCell id="lQTbw5Bxh98kHqV1IfDI-18" value="Переписка" style="rounded=1;whiteSpace=wrap;html=1;opacity=30;strokeWidth=4;" vertex="1" parent="1">
          <mxGeometry x="600" y="310" width="160" height="170" as="geometry" />
        </mxCell>
        <mxCell id="lQTbw5Bxh98kHqV1IfDI-20" value="Общение между сотрудниками" style="rounded=1;whiteSpace=wrap;html=1;fillColor=none;opacity=30;strokeWidth=4;" vertex="1" parent="1">
          <mxGeometry x="620" y="320" width="120" height="60" as="geometry" />
        </mxCell>
        <mxCell id="lQTbw5Bxh98kHqV1IfDI-21" value="База данных" style="rounded=1;whiteSpace=wrap;html=1;strokeWidth=4;strokeColor=default;opacity=30;" vertex="1" parent="1">
          <mxGeometry x="620" y="410" width="120" height="60" as="geometry" />
        </mxCell>
        <mxCell id="lQTbw5Bxh98kHqV1IfDI-22" value="" style="endArrow=classic;startArrow=classic;html=1;rounded=0;exitX=1;exitY=0;exitDx=0;exitDy=0;entryX=0.5;entryY=1;entryDx=0;entryDy=0;" edge="1" parent="1" source="6" target="lQTbw5Bxh98kHqV1IfDI-18">
          <mxGeometry width="50" height="50" relative="1" as="geometry">
            <mxPoint x="610" y="560" as="sourcePoint" />
            <mxPoint x="660" y="510" as="targetPoint" />
          </mxGeometry>
        </mxCell>
        <mxCell id="lQTbw5Bxh98kHqV1IfDI-23" value="" style="endArrow=classic;html=1;rounded=0;exitX=0.5;exitY=0;exitDx=0;exitDy=0;entryX=1;entryY=0.5;entryDx=0;entryDy=0;" edge="1" parent="1" source="lQTbw5Bxh98kHqV1IfDI-18" target="2">
          <mxGeometry width="50" height="50" relative="1" as="geometry">
            <mxPoint x="640" y="270" as="sourcePoint" />
            <mxPoint x="690" y="220" as="targetPoint" />
          </mxGeometry>
        </mxCell>
      </root>
    </mxGraphModel>
  </diagram>
</mxfile>
